name rise30.6535peak61.5555fall82.9339.mot
datacolumns 19
datarows 11
range 16.45492900000000 16.47159800000000
endheader
time	ground_force1_vx	ground_force1_vy	ground_force1_vz	ground_force1_px	ground_force1_py	ground_force1_pz	ground_force2_vx	ground_force2_vy	ground_force2_vz	ground_force2_px	ground_force2_py	ground_force2_pz	ground_torque1_x	ground_torque1_y	ground_torque1_z	ground_torque2_x	ground_torque2_y	ground_torque2_z	
16.45492900000000	-50.86025000000000	804.77841999999998	53.12210900000000	0.15530700000000	0.00000000000000	0.11982600000000	-15.72497400000000	69.42075400000000	12.98086500000000	0.40460400000000	0.00000000000000	-0.06113300000000	0.00000000000000	28.61160200000000	0.00000000000000	0.00000000000000	8.97935200000000	0.00000000000000	
16.45661100000000	-51.23044200000000	802.41336999999999	52.87088000000000	0.15464100000000	0.00000000000000	0.11976900000000	-15.99922800000000	73.93053000000000	13.45878700000000	0.40639000000000	0.00000000000000	-0.06142900000000	0.00000000000000	28.50536600000000	0.00000000000000	0.00000000000000	9.37587000000000	0.00000000000000	
16.45826600000000	-51.60267200000000	799.92195000000004	52.60187400000000	0.15399000000000	0.00000000000000	0.11970800000000	-16.11719100000000	78.21279199999999	13.83709000000000	0.40816600000000	0.00000000000000	-0.06171600000000	0.00000000000000	28.39667500000000	0.00000000000000	0.00000000000000	9.71058100000000	0.00000000000000	
16.45993200000000	-51.97735000000000	797.30319299999996	52.31498900000000	0.15335400000000	0.00000000000000	0.11964400000000	-16.09750900000000	82.31287600000000	14.12683000000000	0.40993100000000	0.00000000000000	-0.06199400000000	0.00000000000000	28.28565800000000	0.00000000000000	0.00000000000000	9.99003400000000	0.00000000000000	
16.46159600000000	-52.35486600000000	794.55617400000006	52.01015200000000	0.15273300000000	0.00000000000000	0.11957600000000	-15.96084500000000	86.28396900000000	14.34068800000000	0.41168400000000	0.00000000000000	-0.06226500000000	0.00000000000000	28.17244100000000	0.00000000000000	0.00000000000000	10.22195800000000	0.00000000000000	
16.46326600000000	-52.73559100000000	791.68000600000005	51.68731400000000	0.15212700000000	0.00000000000000	0.11950400000000	-15.72812100000000	90.18212900000000	14.49176500000000	0.41342400000000	0.00000000000000	-0.06253000000000	0.00000000000000	28.05714400000000	0.00000000000000	0.00000000000000	10.41446900000000	0.00000000000000	
16.46493300000000	-53.11986900000000	788.67384300000003	51.34645700000000	0.15153700000000	0.00000000000000	0.11942900000000	-15.41903300000000	94.06190900000000	14.59254400000000	0.41514800000000	0.00000000000000	-0.06279000000000	0.00000000000000	27.93988000000000	0.00000000000000	0.00000000000000	10.57538500000000	0.00000000000000	
16.46660300000000	-53.50801600000000	785.53688199999999	50.98758800000000	0.15096300000000	0.00000000000000	0.11935000000000	-15.05092200000000	97.97284500000001	14.65407600000000	0.41685300000000	0.00000000000000	-0.06304500000000	0.00000000000000	27.82075600000000	0.00000000000000	0.00000000000000	10.71167600000000	0.00000000000000	
16.46826400000000	-53.90031500000000	782.26835800000003	50.61074300000000	0.15040400000000	0.00000000000000	0.11926700000000	-14.63801000000000	101.95691400000000	14.68542300000000	0.41853800000000	0.00000000000000	-0.06329700000000	0.00000000000000	27.69986900000000	0.00000000000000	0.00000000000000	10.82907300000000	0.00000000000000	
16.46993000000000	-54.29701200000000	778.86755400000004	50.21598200000000	0.14986100000000	0.00000000000000	0.11918000000000	-14.19100600000000	106.04699100000001	14.69333700000000	0.42019800000000	0.00000000000000	-0.06354600000000	0.00000000000000	27.57731000000000	0.00000000000000	0.00000000000000	10.93182900000000	0.00000000000000	
16.47159800000000	-54.69831300000000	775.33379300000001	49.80339600000000	0.14933300000000	0.00000000000000	0.11908800000000	-13.71704000000000	110.26623600000001	14.68217200000000	0.42183200000000	0.00000000000000	-0.06379200000000	0.00000000000000	27.45315800000000	0.00000000000000	0.00000000000000	11.02264300000000	0.00000000000000	
